<?xml version="1.0" standalone="no"?>
<!DOCTYPE svg PUBLIC "-//W3C//DTD SVG 20010904//EN"
 "http://www.w3.org/TR/2001/REC-SVG-20010904/DTD/svg10.dtd">
<svg version="1.0" xmlns="http://www.w3.org/2000/svg"
 width="225.000000pt" height="225.000000pt" viewBox="0 0 225.000000 225.000000"
 preserveAspectRatio="xMidYMid meet">
<metadata>
Created by potrace 1.15, written by Peter Selinger 2001-2017
</metadata>
<g transform="translate(0.000000,225.000000) scale(0.100000,-0.100000)"
fill="#c70101" stroke="none">
<path d="M1144 2186 c-26 -26 -34 -42 -34 -70 0 -20 -3 -36 -6 -36 -3 0 -24
11 -47 24 -23 14 -78 37 -122 51 -100 34 -261 38 -365 11 -395 -105 -600 -545
-426 -913 27 -56 32 -73 20 -73 -31 0 -76 -33 -90 -65 -20 -49 -21 -740 0
-788 26 -64 37 -66 322 -69 l258 -3 98 -109 c116 -131 125 -137 150 -106 15
18 18 40 18 121 l0 99 194 0 194 0 30 29 c16 17 32 44 36 62 3 17 6 116 6 220
l0 189 45 0 45 0 0 -103 c0 -168 23 -170 180 -12 l115 115 177 0 178 0 32 29
33 29 0 672 0 672 -33 29 -32 29 -471 0 -471 0 -34 -34z m954 -48 c17 -17 17
-1279 0 -1296 -8 -8 -65 -12 -193 -12 l-180 0 -80 -80 c-44 -44 -83 -80 -87
-80 -5 0 -8 29 -8 64 0 103 13 96 -186 96 l-174 0 0 111 0 110 50 61 c66 83
106 161 130 254 24 94 26 235 5 319 -22 85 -86 211 -139 272 -44 48 -46 54
-46 110 0 33 5 64 12 71 17 17 879 17 896 0z m-1224 -44 c162 -41 313 -163
381 -305 94 -199 83 -393 -34 -572 -139 -212 -392 -309 -638 -243 l-51 14 -81
-54 c-44 -30 -85 -54 -90 -54 -5 0 0 37 10 83 10 45 19 86 19 90 0 4 -29 38
-65 75 -75 76 -136 187 -155 279 -18 85 -8 244 20 318 87 231 301 383 544 384
43 1 106 -6 140 -15z m-602 -1022 l37 -38 -24 -108 c-49 -213 -37 -222 135
-105 l122 81 55 -11 c144 -29 315 -6 444 59 32 17 61 30 63 30 3 0 7 -48 8
-107 l3 -108 93 -3 92 -3 0 -202 c0 -145 -3 -206 -12 -215 -9 -9 -73 -12 -225
-12 -244 0 -220 11 -225 -104 l-3 -60 -70 82 -70 81 -265 1 c-193 0 -269 3
-278 12 -9 9 -12 107 -12 380 0 339 1 368 18 377 36 22 76 12 114 -27z"/>
<path d="M1600 1738 c-27 -61 -200 -503 -200 -510 0 -4 15 -8 34 -8 34 0 35 2
63 75 l28 76 124 -3 125 -3 27 -70 c25 -68 27 -70 63 -73 20 -2 36 0 36 5 0 4
-47 125 -103 268 l-104 260 -41 3 c-36 3 -43 0 -52 -20z m99 -181 c23 -59 41
-112 41 -117 0 -10 -172 -15 -182 -5 -3 3 10 47 29 98 19 51 39 105 45 120 6
16 14 25 18 20 5 -4 27 -56 49 -116z"/>
<path d="M690 1745 l0 -58 -95 6 -95 5 0 -29 0 -29 91 7 90 6 -6 -29 c-10 -40
-58 -145 -88 -190 -14 -20 -47 -59 -73 -86 -25 -27 -45 -50 -43 -52 2 -2 15
-9 28 -16 23 -12 27 -10 58 26 18 21 56 78 84 127 l52 87 99 0 c72 0 98 -3 98
-12 0 -26 -66 -143 -80 -143 -8 0 -28 25 -45 56 -27 51 -32 56 -53 48 l-24 -9
27 -48 c15 -26 34 -54 41 -63 8 -8 14 -20 14 -26 0 -17 -61 -51 -134 -76 l-65
-22 18 -24 19 -24 56 23 c31 12 77 36 102 53 l45 30 39 -22 c41 -23 144 -61
166 -61 6 0 17 13 22 29 l11 30 -57 12 c-48 10 -128 35 -141 45 -2 2 7 17 18
33 25 35 75 143 85 184 l6 27 -125 0 c-69 0 -125 3 -125 6 0 4 5 25 12 46 l12
40 158 -4 158 -4 0 26 0 25 -156 -4 -156 -3 7 33 c3 19 9 42 11 52 3 10 0 17
-8 17 -7 0 -23 3 -35 6 -22 6 -23 4 -23 -51z"/>
<path d="M481 769 c-6 -18 -11 -60 -11 -94 0 -79 25 -120 95 -155 67 -33 210
-40 320 -15 145 32 165 49 165 140 0 45 -35 155 -49 155 -14 0 -34 -48 -28
-67 3 -10 15 -42 28 -70 13 -29 20 -55 17 -58 -11 -11 -112 -35 -194 -46 -135
-18 -257 15 -304 82 -19 26 -22 40 -17 95 5 69 -4 83 -22 33z"/>
</g>
</svg>
