<?xml version="1.0" standalone="no"?>
<!DOCTYPE svg PUBLIC "-//W3C//DTD SVG 20010904//EN"
 "http://www.w3.org/TR/2001/REC-SVG-20010904/DTD/svg10.dtd">
<svg version="1.0" xmlns="http://www.w3.org/2000/svg"
 width="168.000000pt" height="127.000000pt" viewBox="0 0 168.000000 127.000000"
 preserveAspectRatio="xMidYMid meet">
<metadata>
Created by potrace 1.15, written by Peter Selinger 2001-2017
</metadata>
<g transform="translate(0.000000,127.000000) scale(0.100000,-0.100000)"
fill="#c70101" stroke="none">
<path d="M200 620 l0 -369 345 -3 c271 -2 345 0 345 10 0 9 -74 12 -335 12
l-335 0 0 345 0 345 505 0 c493 0 505 0 505 -19 0 -32 17 -33 22 -2 2 15 2 33
0 39 -3 9 -139 12 -528 12 l-524 0 0 -370z"/>
<path d="M1139 731 c-9 -53 -9 -89 0 -158 18 -145 20 -148 71 -148 l44 0 14
50 c15 55 22 254 9 297 -7 25 -9 26 -38 16 -22 -8 -37 -7 -55 1 -14 6 -27 11
-29 11 -2 0 -9 -31 -16 -69z"/>
<path d="M1013 479 c-12 -4 -29 -22 -38 -38 -8 -17 -24 -35 -35 -41 -11 -6
-27 -24 -35 -41 -24 -45 -5 -95 43 -116 21 -9 56 -25 79 -37 35 -17 47 -19 71
-10 23 9 35 8 56 -3 31 -16 71 -10 97 13 15 13 21 13 50 -5 44 -27 58 -26 103
4 20 14 48 28 61 31 33 8 65 50 65 84 0 15 -9 39 -20 53 -11 14 -20 33 -20 42
0 25 -55 75 -83 75 -23 0 -24 -2 -16 -42 19 -101 0 -122 -60 -64 -20 20 -40
36 -44 36 -4 0 -7 -13 -7 -30 0 -40 -18 -77 -48 -96 -25 -16 -26 -16 -60 21
-28 30 -33 43 -30 71 5 43 -7 43 -52 -1 -25 -24 -42 -34 -53 -29 -19 7 -20 19
-7 84 4 25 8 46 7 46 -1 1 -12 -2 -24 -7z"/>
</g>
</svg>
