<?xml version="1.0" standalone="no"?>
<!DOCTYPE svg PUBLIC "-//W3C//DTD SVG 20010904//EN"
 "http://www.w3.org/TR/2001/REC-SVG-20010904/DTD/svg10.dtd">
<svg version="1.0" xmlns="http://www.w3.org/2000/svg"
 width="283.000000pt" height="178.000000pt" viewBox="0 0 283.000000 178.000000"
 preserveAspectRatio="xMidYMid meet">
<metadata>
Created by potrace 1.15, written by Peter Selinger 2001-2017
</metadata>
<g transform="translate(0.000000,178.000000) scale(0.100000,-0.100000)"
fill="#c70101" stroke="none">
<path d="M463 1768 c-25 -30 -454 -800 -451 -809 2 -5 50 -38 108 -74 81 -49
108 -61 116 -52 16 16 454 795 454 807 0 5 -39 32 -87 61 -49 29 -97 59 -109
66 -17 11 -23 11 -31 1z"/>
<path d="M2248 1714 c-60 -36 -108 -69 -108 -74 0 -12 438 -791 454 -807 8 -9
35 3 116 52 58 36 106 69 108 74 3 10 -431 787 -452 808 -8 9 -36 -3 -118 -53z"/>
<path d="M1375 1550 c-107 -9 -200 -27 -237 -46 -28 -15 -138 -158 -214 -280
-32 -52 -47 -87 -48 -112 l-1 -37 57 1 c84 2 154 41 242 135 63 68 78 79 138
99 l68 22 122 -65 c241 -128 499 -298 713 -470 80 -65 80 -65 110 -49 33 17
155 130 155 144 0 4 -78 146 -172 314 -164 290 -174 305 -198 300 -81 -19
-129 -17 -242 8 -196 45 -297 52 -493 36z"/>
<path d="M516 1194 c-97 -172 -176 -315 -176 -318 0 -7 102 -136 107 -136 2 0
18 10 34 23 61 44 160 18 207 -54 l23 -35 43 43 c40 39 48 43 93 43 88 0 163
-72 163 -156 0 -42 2 -44 29 -44 62 0 141 -91 141 -162 0 -20 5 -28 17 -28 39
0 104 -43 128 -84 30 -52 32 -103 5 -157 l-21 -39 28 -11 c59 -23 209 -49 248
-43 59 9 125 55 125 87 0 2 -63 34 -141 72 -120 58 -140 70 -137 89 2 12 11
22 23 24 12 2 85 -29 163 -68 153 -75 212 -88 259 -55 20 14 52 90 42 98 -2 2
-80 48 -174 101 -93 54 -176 103 -183 110 -17 17 -5 46 20 46 10 0 100 -47
200 -105 182 -106 209 -116 262 -95 31 11 66 65 66 100 -1 22 -26 40 -202 145
-111 66 -210 126 -220 135 -24 19 -15 50 14 50 11 0 121 -61 245 -135 250
-150 269 -156 324 -107 24 21 31 36 31 64 0 49 -14 66 -118 150 -212 169 -439
320 -672 448 l-132 73 -46 -13 c-36 -10 -63 -31 -127 -95 -102 -102 -167 -136
-272 -143 -69 -4 -75 -3 -99 21 -20 20 -26 36 -26 70 0 51 22 96 109 226 l60
89 -81 12 c-51 8 -105 25 -144 44 l-62 32 -176 -312z"/>
<path d="M501 698 c-82 -87 -95 -152 -42 -200 21 -19 42 -28 64 -28 40 0 45 4
90 64 28 37 37 58 37 88 0 80 -99 131 -149 76z"/>
<path d="M808 688 c-8 -7 -60 -74 -114 -148 -84 -115 -98 -141 -98 -174 -1
-63 70 -112 129 -90 9 4 62 68 117 142 122 164 130 192 75 247 -37 37 -79 46
-109 23z"/>
<path d="M893 384 c-76 -101 -88 -122 -88 -156 0 -79 103 -130 152 -75 11 12
50 64 88 116 55 76 68 101 69 133 1 33 -5 45 -32 69 -22 20 -43 29 -67 29 -33
0 -40 -7 -122 -116z"/>
<path d="M1117 258 c-76 -96 -89 -118 -89 -152 0 -46 15 -70 56 -90 54 -25 78
-13 141 70 64 85 74 118 51 162 -20 38 -44 52 -90 52 -29 0 -40 -7 -69 -42z"/>
</g>
</svg>
